DataRate=2000.000000
DataType=double
version=3
OpenSimVersion=4.3-2021-08-27-4bc7ad9
endheader
time	f1_1	f1_2	f1_3	p1_1	p1_2	p1_3	m1_1	m1_2	m1_3	f2_1	f2_2	f2_3	p2_1	p2_2	p2_3	m2_1	m2_2	m2_3	f3_1	f3_2	f3_3	p3_1	p3_2	p3_3	m3_1	m3_2	m3_3	f4_1	f4_2	f4_3	p4_1	p4_2	p4_3	m4_1	m4_2	m4_3
1.6575	-0	0	0	-300	2252	0	0	0	0	-1.97267210483551	-40.83677291870117	412.7481079101562	-300	1351	0	-108035	19451.3671875	-2078.956787109375	7.064229113759266	38.95784393491122	367.5620727539062	-300	450.0000000000005	0	100913.2260764217	22240.35376802855	-1637.36669921875	-0	0	0	305	450.0000000000006	0	0	0	0
1.658	-0	0	0	-300	2252	0	0	0	0	-2.383545160293579	-41.32636642456055	413.2006225585938	-300	1351	0	-107801.671875	19076.2734375	-2219.07275390625	7.16953573754406	39.03020111494714	367.021484375	-300	450.0000000000005	0	101096.9995124304	22308.58814704504	-1680.672973632812	-0	0	0	305	450.0000000000006	0	0	0	0
1.6585	-0	0	0	-300	2252	0	0	0	0	-2.324469804763794	-41.35650634765625	413.553955078125	-300	1351	0	-107979.3046875	19549.431640625	-2061.699951171875	7.427739725945861	38.79708497068803	367.5937805175781	-300	450.0000000000005	0	100862.1245161013	22140.62720441169	-1686.2783203125	-0	0	0	305	450.0000000000006	0	0	0	0
1.659	-0	0	0	-300	2252	0	0	0	0	-1.730010271072388	-40.51517105102539	412.906982421875	-300	1351	0	-108386.78125	19544.8203125	-2078.64013671875	7.451705081688657	38.93395249440516	365.75048828125	-300	450.0000000000005	0	100784.522957434	21965.26001521565	-1632.277587890625	-0	0	0	305	450.0000000000006	0	0	0	0
1.6595	-0	0	0	-300	2252	0	0	0	0	-1.947604894638062	-41.30646514892578	414.2007751464844	-300	1351	0	-108396.265625	19056.45703125	-2246.576904296875	7.693839175579106	38.94986741668936	367.4677734375	-300	450.0000000000005	0	100600.476081923	21988.64087056818	-1600.111694335938	-0	0	0	305	450.0000000000006	0	0	0	0
1.66	-0	0	0	-300	2252	0	0	0	0	-1.794242382049561	-41.18827056884766	413.9467468261719	-300	1351	0	-108194.546875	19629.060546875	-2201.097412109375	7.879245865723009	38.70881288582944	366.0684509277344	-300	450.0000000000005	0	100568.2885808681	22036.9084479897	-1570.643432617188	-0	0	0	305	450.0000000000006	0	0	0	0
1.6605	-0	0	0	-300	2252	0	0	0	0	-1.784210205078125	-41.43058395385742	412.2604370117188	-300	1351	0	-108196.9453125	19388.494140625	-2225.598876953125	7.411077121961695	39.08661667808752	365.5932922363281	-300	450.0000000000005	0	100708.968269998	21962.33227918935	-1729.44287109375	-0	0	0	305	450.0000000000006	0	0	0	0
1.661	-0	0	0	-300	2252	0	0	0	0	-1.868390083312988	-41.19332504272461	414.1605834960938	-300	1351	0	-108119.9140625	19486.400390625	-2061.518310546875	7.44368420666519	38.80516831454236	364.2914428710938	-300	450.0000000000005	0	100404.1401441034	22003.26586627712	-1718.634155273438	-0	0	0	305	450.0000000000006	0	0	0	0
1.6615	-0	0	0	-300	2252	0	0	0	0	-2.041765928268433	-41.01005172729492	412.6138916015625	-300	1351	0	-108486.7265625	19448.90625	-2161.88037109375	7.613070113886286	38.93388001868386	367.3406982421875	-300	450.0000000000005	0	100263.5073317101	21998.38500382849	-1608.12158203125	-0	0	0	305	450.0000000000006	0	0	0	0
1.662	-0	0	0	-300	2252	0	0	0	0	-2.051841735839844	-41.25225830078125	413.5137939453125	-300	1351	0	-108333.125	19556.515625	-2306.624755859375	7.709801785064609	38.54825608891323	366.7040710449219	-300	450.0000000000005	0	100469.9213873862	22310.60961771482	-1732.435180664062	-0	0	0	305	450.0000000000006	0	0	0	0
1.6625	-0	0	0	-300	2252	0	0	0	0	-2.304315567016602	-41.26737976074219	415.2395935058594	-300	1351	0	-108259.375	19132.287109375	-2287.3837890625	7.637169473164198	38.50825517179846	364.3867492675781	-300	450.0000000000005	0	100489.9995196875	21976.54125877864	-1583.9814453125	-0	0	0	305	450.0000000000006	0	0	0	0
1.663	-0	0	0	-300	2252	0	0	0	0	-2.403624057769775	-41.43553161621094	412.6744079589844	-300	1351	0	-108010.3203125	19335.630859375	-2175.557373046875	7.790448299076186	38.58856599668168	366.0699768066406	-300	450.0000000000005	0	100615.6948320329	21983.6135271508	-1702.794311523438	-0	0	0	305	450.0000000000006	0	0	0	0
1.6635	-0	0	0	-300	2252	0	0	0	0	-2.072110176086426	-41.44564056396484	413.1803894042969	-300	1351	0	-108250.1640625	19051.552734375	-2196.427978515625	7.645241370647845	38.59658067246315	364.9903259277344	-300	450.0000000000005	0	100567.3198340479	21891.42016671853	-1689.178588867188	-0	0	0	305	450.0000000000006	0	0	0	0
1.664	-0	0	0	-300	2252	0	0	0	0	-1.631161093711853	-40.85721206665039	413.2205200195312	-300	1351	0	-108358.234375	19231.05859375	-2252.655029296875	7.629126658886371	38.59658067211096	364.8634643554688	-300	450.0000000000005	0	100561.2495171354	22093.31274471086	-1659.505493164062	-0	0	0	305	450.0000000000006	0	0	0	0
1.6645	-0	0	0	-300	2252	0	0	0	0	-1.858175754547119	-40.98983001708984	413.8866577148438	-300	1351	0	-108055.8671875	19257.201171875	-2118.268310546875	7.548487776897738	38.43600861834658	364.2286987304688	-300	450.0000000000005	0	100491.8979598506	21854.69360257013	-1656.791870117188	-0	0	0	305	450.0000000000006	0	0	0	0
1.665	-0	0	0	-300	2252	0	0	0	0	-2.125785350799561	-41.5042610168457	414.9259948730469	-300	1351	0	-108512.171875	19383.037109375	-2248.29345703125	7.943574542538294	38.4199373074014	364.4824829101562	-300	450.0000000000005	0	100185.1479585967	21912.0646896159	-1630.114501953125	-0	0	0	305	450.0000000000006	0	0	0	0
1.6655	-0	0	0	-300	2252	0	0	0	0	-1.972823739051819	-41.19861221313477	415.6524658203125	-300	1351	0	-108775.703125	19602.2265625	-2063.348876953125	7.580847375561794	38.50020615933703	366.735595703125	-300	450.0000000000005	0	100221.1401442838	21995.01195602753	-1600.1748046875	-0	0	0	305	450.0000000000006	0	0	0	0
1.666	-0	0	0	-300	2252	0	0	0	0	-1.626203298568726	-41.01018142700195	414.3609008789062	-300	1351	0	-108652.59375	19263.44140625	-2078.983154296875	7.782267682545301	38.50825517496968	365.0545959472656	-300	450.0000000000005	0	99866.42139902357	21778.14476077491	-1678.484619140625	-0	0	0	305	450.0000000000006	0	0	0	0
1.6665	-0	0	0	-300	2252	0	0	0	0	-2.19473671913147	-40.91592788696289	414.6131591796875	-300	1351	0	-108385.0625	19609.416015625	-2191.03515625	7.725903628361388	38.26738755899171	364.2286682128906	-300	450.0000000000005	0	100236.4917072916	21971.77758136305	-1632.691772460938	-0	0	0	305	450.0000000000006	0	0	0	0
1.667	-0	0	0	-300	2252	0	0	0	0	-2.482653379440308	-41.16301727294922	413.3009643554688	-300	1351	0	-108383.8515625	19591.91796875	-2032.505493164062	7.879119033703669	38.40386980110987	365.4347229003906	-300	450.0000000000005	0	99986.84327183258	21878.39281028181	-1627.371459960938	-0	0	0	305	450.0000000000006	0	0	0	0
1.6675	-0	0	0	-300	2252	0	0	0	0	-1.404296159744263	-41.17824554443359	414.8857421875	-300	1351	0	-108703.046875	19635.162109375	-2104.97509765625	7.733992213741907	38.41993730282083	363.6575927734375	-300	450.0000000000005	0	100136.4838980343	21823.41039167731	-1735.116088867188	-0	0	0	305	450.0000000000006	0	0	0	0
1.668	-0	0	0	-300	2252	0	0	0	0	-2.011082887649536	-41.26229095458984	415.3194274902344	-300	1351	0	-108218.65625	19344.025390625	-2220.48583984375	7.959715957180628	38.41993730775419	363.4668579101562	-300	450.0000000000005	0	100154.3823382329	21699.93578269349	-1611.277709960938	-0	0	0	305	450.0000000000006	0	0	0	0
1.6685	-0	0	0	-300	2252	0	0	0	0	-1.63129997253418	-41.35140991210938	414.3406982421875	-300	1351	0	-108701.4296875	19191.4140625	-2227.141845703125	7.903350945812401	38.33966844665901	363.1495361328125	-300	450.0000000000005	0	100149.6948372392	21745.40257946604	-1597.74072265625	-0	0	0	305	450.0000000000006	0	0	0	0
1.669	-0	0	0	-300	2252	0	0	0	0	-2.110395669937134	-41.60858535766602	415.6119079589844	-300	1351	0	-108239.1015625	18989.712890625	-2117.205322265625	7.814647315387746	38.25135820302111	363.11767578125	-300	450.0000000000005	0	99904.8276541372	21544.1721053643	-1651.61181640625	-0	0	0	305	450.0000000000006	0	0	0	0
1.6695	-0	0	0	-300	2252	0	0	0	0	-1.720583319664001	-41.03577041625977	413.6952819824219	-300	1351	0	-108492.015625	19509.869140625	-2137.5068359375	7.887152787900741	38.32353990626592	365.0211486816406	-300	450.0000000000005	0	99826.07765585485	21465.58225989317	-1576.201293945312	-0	0	0	305	450.0000000000006	0	0	0	0
